<svg width="150" height="151" viewBox="0 0 150 151" fill="none" xmlns="http://www.w3.org/2000/svg">
<circle cx="84.5" cy="77.5" r="25.5" fill="#D70F0E"/>
<path d="M43.2954 57.3325C39.0926 53.2712 44.9582 50.5612 45.4181 50.3561L55.9605 45.3183C56.2677 45.1709 56.6014 45.0868 56.9418 45.071C57.2821 45.0552 57.6222 45.108 57.9417 45.2263L74.3638 51.3254C76.3192 52.0518 78.4104 52.339 80.4891 52.1666C82.5679 51.9942 84.5832 51.3664 86.3921 50.3278L86.5549 50.2358C87.1938 49.8682 87.6917 49.298 87.97 48.6155C88.0833 48.3256 88.077 48.0025 87.9523 47.7172C87.8276 47.432 87.5947 47.2079 87.3049 47.0943L60.4181 36.6367" stroke="#FCF9F8" stroke-miterlimit="10"/>
<path d="M18.4951 51.8086C22.2734 59.6694 26.2781 63.2072 34.1814 66.8227L57.0494 79.0067C57.2014 79.0758 57.3677 79.108 57.5345 79.1007C57.7014 79.0934 57.8642 79.0469 58.0096 78.9648C58.1551 78.8828 58.2792 78.7676 58.3717 78.6285C58.4643 78.4895 58.5227 78.3306 58.5423 78.1647L58.5777 77.91C58.8218 75.9328 58.5141 73.9266 57.6887 72.1134C56.8633 70.3002 55.5523 68.7507 53.9008 67.6364L43.2876 57.3487" stroke="#FCF9F8" stroke-miterlimit="10"/>
<path d="M31.4224 25.5012L20.6465 16.4375L0.743164 40.112L22.4083 58.3314" stroke="#FCF9F8" stroke-miterlimit="10"/>
<path d="M28.9033 26.6949L83.151 0.97557C83.3834 0.869347 83.6391 0.824265 83.8938 0.844601C84.1486 0.864937 84.3939 0.950017 84.6065 1.09177C84.8191 1.23352 84.992 1.42725 85.1088 1.65457C85.2255 1.88189 85.2823 2.13526 85.2736 2.39066C85.2736 2.39066 85.8113 7.18783 82.1675 9.55812L79.2453 11.1359" stroke="#FCF9F8" stroke-miterlimit="10"/>
<path d="M64.6628 18.056L78.2052 11.4758C78.7132 11.2294 79.2667 11.091 79.8308 11.0694C80.3949 11.0478 80.9574 11.1434 81.4827 11.3502C82.0079 11.557 82.4846 11.8704 82.8826 12.2708C83.2806 12.6712 83.5912 13.1498 83.7949 13.6763L91.2736 32.9428C91.3385 33.1111 91.3685 33.2908 91.3621 33.4711C91.3556 33.6514 91.3128 33.8285 91.2361 33.9917C91.1594 34.155 91.0505 34.3011 90.9159 34.4211C90.7813 34.5412 90.6238 34.6328 90.4529 34.6904C90.1039 34.8036 89.7346 34.8398 89.3703 34.7966L87.9552 34.6338C86.3063 34.439 84.7377 33.8133 83.4075 32.8196C82.0772 31.8259 81.0321 30.4994 80.3774 28.9735L76.9104 20.9923L62.71 28.0678L97.592 41.2706C97.7747 41.3395 97.9404 41.447 98.0777 41.5857C98.2151 41.7244 98.321 41.8911 98.3881 42.0744C98.4553 42.2577 98.4821 42.4534 98.4668 42.648C98.4516 42.8426 98.3945 43.0316 98.2996 43.2022C98.1569 43.4593 97.9645 43.6854 97.7336 43.8673L96.1345 45.1197C94.3582 46.5187 92.194 47.3364 89.9364 47.4617H87.7218" stroke="#FCF9F8" stroke-miterlimit="10"/>
<path d="M107.923 135.907V149.449H135.637V123.694C135.637 118.859 133.716 114.221 130.297 110.801C126.877 107.382 122.24 105.461 117.404 105.461L99.8496 105.716" stroke="#FCF9F8" stroke-miterlimit="10"/>
<path d="M121.628 128.93C114.892 120.829 109.387 117.61 98.3494 117.61H95.3848C94.8825 117.612 94.3848 117.513 93.9216 117.318C93.4584 117.124 93.0392 116.838 92.6891 116.477L84.1207 107.782C83.1633 106.81 82.0222 106.038 80.7638 105.51C79.5055 104.983 78.1548 104.712 76.7905 104.711H76.3164C75.8669 104.712 75.4262 104.836 75.0424 105.07C74.6586 105.304 74.3464 105.639 74.1398 106.038C73.9332 106.437 73.8402 106.885 73.871 107.334C73.9017 107.782 74.055 108.214 74.3141 108.581L89.2575 129.772" stroke="#FCF9F8" stroke-miterlimit="10"/>
<path d="M110.78 135.908H91.2309C87.7672 135.907 84.3523 135.091 81.2622 133.527C78.1721 131.962 75.4936 129.692 73.4432 126.901L51.3465 96.8156C51.2064 96.6251 51.1077 96.4075 51.0567 96.1767C51.0056 95.9458 51.0033 95.7068 51.0499 95.4751C51.0966 95.2433 51.1911 95.0238 51.3274 94.8306C51.4638 94.6375 51.639 94.4749 51.8417 94.3534C53.3543 93.4519 55.1451 93.137 56.8745 93.4682C58.6038 93.7995 60.1515 94.7539 61.2238 96.1505L71.6177 109.679L78.7427 114.83" stroke="#FCF9F8" stroke-miterlimit="10"/>
<path d="M87.0283 101.957C87.3013 102.431 87.6238 102.874 87.9906 103.28L93.8208 111.282" stroke="#FCF9F8" stroke-miterlimit="10"/>
<path d="M101.795 108.523L95.1016 99.6719" stroke="#FCF9F8" stroke-miterlimit="10"/>
<path d="M76.04 101.195L78.0141 104.712" stroke="#FCF9F8" stroke-miterlimit="10"/>
<path d="M69.2973 106.658L62.1652 92.0043C62.0958 91.8673 62.054 91.718 62.0424 91.5648C62.0308 91.4116 62.0495 91.2577 62.0975 91.1118C62.1455 90.9659 62.2218 90.8308 62.322 90.7145C62.4223 90.5981 62.5445 90.5026 62.6817 90.4336" stroke="#FCF9F8" stroke-miterlimit="10"/>
<path d="M79.0822 104.999L77.8652 101.617" stroke="#FCF9F8" stroke-miterlimit="10"/>
<path d="M83.9016 53.0018C88.7451 53.0074 93.4782 54.4487 97.5028 57.1437C101.527 59.8387 104.662 63.6663 106.512 68.1427C108.362 72.6191 108.843 77.5434 107.894 82.2932C106.946 87.0429 104.611 91.4049 101.184 94.8278C97.7572 98.2507 93.3926 100.581 88.6417 101.524C83.8909 102.467 78.9671 101.98 74.4929 100.125C70.0186 98.2702 66.1946 95.1306 63.5043 91.1029C60.8139 87.0753 59.378 82.3405 59.378 77.497C59.3874 70.9985 61.975 64.7692 66.5729 60.1766C71.1707 55.5841 77.403 53.0036 83.9016 53.0018ZM83.9016 52.3438C78.9277 52.348 74.0666 53.8267 69.933 56.5932C65.7993 59.3596 62.5787 63.2895 60.6781 67.886C58.7776 72.4825 58.2825 77.5394 59.2554 82.4172C60.2284 87.2951 62.6257 91.775 66.1443 95.2906C69.6629 98.8062 74.1448 101.2 79.0235 102.169C83.9022 103.137 88.9586 102.638 93.5535 100.734C98.1484 98.8292 102.076 95.6052 104.839 91.4693C107.601 87.3333 109.076 82.471 109.076 77.497C109.075 74.1923 108.423 70.9202 107.158 67.8675C105.892 64.8148 104.037 62.0413 101.699 59.7055C99.3616 57.3698 96.5866 55.5174 93.5328 54.2542C90.479 52.9911 87.2063 52.3419 83.9016 52.3438Z" fill="#D70F0E"/>
<path d="M65.1289 83.7764L64.1694 81.6746L72.3967 76.9246L73.3561 79.0264L70.1924 80.5066L73.4231 86.2624L76.2309 90.6457L73.8061 92.0457L71.5839 87.7168L68.0546 81.764L65.1289 83.7764ZM79.152 87.412C78.9386 87.0425 78.8847 86.6425 78.9903 86.212C79.1008 85.7634 79.3465 85.429 79.7276 85.209C80.4781 84.7757 81.0734 84.9401 81.5134 85.7022C81.7668 86.141 81.8382 86.5847 81.7277 87.0334C81.6288 87.4754 81.3946 87.803 81.0251 88.0164C80.6671 88.223 80.3176 88.2709 79.9764 88.16C79.6401 88.0308 79.3653 87.7815 79.152 87.412ZM86.3519 78.9596C85.8919 78.1628 85.516 77.6717 85.2241 77.4861C84.9322 77.3005 84.5322 77.3544 84.0241 77.6477C83.5161 77.9411 83.0554 78.4765 82.6421 79.2539L83.3721 80.5183L85.9126 84.4787L83.8417 86.2517L81.6195 81.9228C80.68 80.4022 79.753 79.0898 78.8385 77.9859L80.6742 76.3255C81.1417 76.9486 81.5761 77.5677 81.9774 78.1827C82.0173 77.8518 82.0836 77.5133 82.1763 77.1672C82.2624 76.8096 82.4621 76.3556 82.7756 75.8051C83.0823 75.2431 83.4955 74.8121 84.0151 74.5121C84.5463 74.2055 85.1109 74.1566 85.7088 74.3657C86.3001 74.5632 86.7991 75.0141 87.2058 75.7184L88.2218 77.7183L90.8124 81.7653L88.7241 83.5483L86.3519 78.9596ZM91.7702 80.1268C91.5569 79.7573 91.503 79.3573 91.6086 78.9269C91.719 78.4782 91.9648 78.1439 92.3459 77.9239C93.0964 77.4905 93.6917 77.6549 94.1317 78.417C94.385 78.8558 94.4565 79.2995 94.346 79.7482C94.2471 80.1902 94.0129 80.5179 93.6434 80.7312C93.2854 80.9379 92.9358 80.9857 92.5947 80.8748C92.2584 80.7457 91.9835 80.4963 91.7702 80.1268ZM89.7227 69.5772L88.7632 67.4754L96.9904 62.7254L97.9499 64.8272L94.7861 66.3074L98.0168 72.0632L100.825 76.4465L98.3998 77.8465L96.1777 73.5176L92.6484 67.5647L89.7227 69.5772Z" fill="white"/>
</svg>
