<svg width="127" height="146" viewBox="0 0 127 146" fill="none" xmlns="http://www.w3.org/2000/svg">
<path d="M8.73438 70.7852V93.8415" stroke="#FCF9F8" stroke-miterlimit="10"/>
<path d="M36.7363 89.5703H80.2482" stroke="#FCF9F8"/>
<path d="M36.7363 97.3398H80.2482" stroke="#FCF9F8"/>
<path d="M36.7363 105.09H80.2482" stroke="#FCF9F8"/>
<path d="M36.7363 112.875H80.2482" stroke="#FCF9F8"/>
<path d="M107.647 89.5718V9.82073C107.635 7.47453 106.693 5.22897 105.028 3.57575C103.363 1.92252 101.111 0.996353 98.7648 1.00002H17.6101C15.264 0.994542 13.0116 1.92035 11.3474 3.57416C9.68328 5.22797 8.74348 7.4746 8.73438 9.82073V31.9276" stroke="#FCF9F8" stroke-miterlimit="10"/>
<path d="M8.73438 101.738V123.666C8.74166 126.014 9.68066 128.262 11.345 129.917C13.0093 131.573 15.2628 132.499 17.6101 132.494H86.4144" stroke="#FCF9F8" stroke-miterlimit="10"/>
<path d="M8.73438 39.8203V62.8835" stroke="#FCF9F8" stroke-miterlimit="10"/>
<path d="M14.4788 31.9258H2.70634C2.25498 31.9258 1.822 32.1046 1.5022 32.4231C1.18239 32.7416 1.00182 33.1739 1 33.6252V38.1182C0.999998 38.3419 1.04418 38.5635 1.13002 38.7701C1.21585 38.9768 1.34165 39.1644 1.50019 39.3223C1.65873 39.4802 1.84689 39.6052 2.05387 39.6902C2.26085 39.7752 2.48259 39.8185 2.70634 39.8176H14.4788C14.7025 39.8185 14.9243 39.7752 15.1312 39.6902C15.3382 39.6052 15.5264 39.4802 15.6849 39.3223C15.8435 39.1644 15.9693 38.9768 16.0551 38.7701C16.1409 38.5635 16.1851 38.3419 16.1851 38.1182V33.6252C16.1833 33.1739 16.0027 32.7416 15.6829 32.4231C15.3631 32.1046 14.9301 31.9258 14.4788 31.9258Z" stroke="#FCF9F8" stroke-miterlimit="10"/>
<path d="M14.4788 62.8828H2.70634C2.25379 62.8828 1.81977 63.0626 1.49977 63.3826C1.17977 63.7026 1 64.1366 1 64.5892V69.0752C1 69.5278 1.17977 69.9618 1.49977 70.2818C1.81977 70.6018 2.25379 70.7816 2.70634 70.7816H14.4788C14.9313 70.7816 15.3653 70.6018 15.6853 70.2818C16.0053 69.9618 16.1851 69.5278 16.1851 69.0752V64.5892C16.1851 64.1366 16.0053 63.7026 15.6853 63.3826C15.3653 63.0626 14.9313 62.8828 14.4788 62.8828Z" stroke="#FCF9F8" stroke-miterlimit="10"/>
<path d="M14.4788 93.8399H2.70634C2.48259 93.839 2.26085 93.8822 2.05387 93.9672C1.84689 94.0522 1.65873 94.1773 1.50019 94.3352C1.34165 94.4931 1.21585 94.6807 1.13002 94.8874C1.04418 95.094 0.999998 95.3156 1 95.5393V100.032C1.00182 100.484 1.18239 100.916 1.5022 101.234C1.822 101.553 2.25498 101.732 2.70634 101.732H14.4788C14.9301 101.732 15.3631 101.553 15.6829 101.234C16.0027 100.916 16.1833 100.484 16.1851 100.032V95.5393C16.1851 95.3156 16.1409 95.094 16.0551 94.8874C15.9693 94.6807 15.8435 94.4931 15.6849 94.3352C15.5264 94.1773 15.3382 94.0522 15.1312 93.9672C14.9243 93.8822 14.7025 93.839 14.4788 93.8399Z" stroke="#FCF9F8" stroke-miterlimit="10"/>
<path d="M126.271 89.207H86.1035V145H126.271V89.207Z" stroke="#FCF9F8" stroke-miterlimit="10"/>
<path d="M119.817 93.9102H92.5571C91.5159 93.9102 90.6719 94.7542 90.6719 95.7954V100.213C90.6719 101.254 91.5159 102.098 92.5571 102.098H119.817C120.859 102.098 121.703 101.254 121.703 100.213V95.7954C121.703 94.7542 120.859 93.9102 119.817 93.9102Z" stroke="#FCF9F8" stroke-miterlimit="10"/>
<path d="M93.6167 107.523H90.6719V111.562H93.6167V107.523Z" stroke="#FCF9F8" stroke-miterlimit="10"/>
<path d="M100.634 107.523H97.6895V111.562H100.634V107.523Z" stroke="#FCF9F8" stroke-miterlimit="10"/>
<path d="M107.66 107.523H104.715V111.562H107.66V107.523Z" stroke="#FCF9F8" stroke-miterlimit="10"/>
<path d="M114.679 107.523H111.734V111.562H114.679V107.523Z" stroke="#FCF9F8" stroke-miterlimit="10"/>
<path d="M121.697 107.523H118.752V111.562H121.697V107.523Z" stroke="#FCF9F8" stroke-miterlimit="10"/>
<path d="M93.6167 116.504H90.6719V120.543H93.6167V116.504Z" stroke="#FCF9F8" stroke-miterlimit="10"/>
<path d="M100.634 116.504H97.6895V120.543H100.634V116.504Z" stroke="#FCF9F8" stroke-miterlimit="10"/>
<path d="M107.66 116.504H104.715V120.543H107.66V116.504Z" stroke="#FCF9F8" stroke-miterlimit="10"/>
<path d="M114.679 116.504H111.734V120.543H114.679V116.504Z" stroke="#FCF9F8" stroke-miterlimit="10"/>
<path d="M121.697 116.504H118.752V120.543H121.697V116.504Z" stroke="#FCF9F8" stroke-miterlimit="10"/>
<path d="M93.6167 125.484H90.6719V129.523H93.6167V125.484Z" stroke="#FCF9F8" stroke-miterlimit="10"/>
<path d="M100.634 125.484H97.6895V129.523H100.634V125.484Z" stroke="#FCF9F8" stroke-miterlimit="10"/>
<path d="M107.66 125.484H104.715V129.523H107.66V125.484Z" stroke="#FCF9F8" stroke-miterlimit="10"/>
<path d="M114.679 125.484H111.734V129.523H114.679V125.484Z" stroke="#FCF9F8" stroke-miterlimit="10"/>
<path d="M121.697 125.484H118.752V129.523H121.697V125.484Z" stroke="#FCF9F8" stroke-miterlimit="10"/>
<path d="M93.6167 134.461H90.6719V138.5H93.6167V134.461Z" stroke="#FCF9F8" stroke-miterlimit="10"/>
<path d="M100.634 134.461H97.6895V138.5H100.634V134.461Z" stroke="#FCF9F8" stroke-miterlimit="10"/>
<path d="M107.66 134.461H104.715V138.5H107.66V134.461Z" stroke="#FCF9F8" stroke-miterlimit="10"/>
<path d="M114.679 134.461H111.734V138.5H114.679V134.461Z" stroke="#FCF9F8" stroke-miterlimit="10"/>
<path d="M121.697 134.461H118.752V138.5H121.697V134.461Z" stroke="#FCF9F8" stroke-miterlimit="10"/>
<circle cx="60.7305" cy="45.5" r="25.5" fill="#D70F0E"/>
<path d="M60.1321 21.0018C64.9756 21.0074 69.7087 22.4487 73.7333 25.1437C77.7575 27.8387 80.8925 31.6663 82.7425 36.1427C84.5925 40.6191 85.0735 45.5434 84.1245 50.2932C83.1765 55.0429 80.8415 59.4049 77.4145 62.8278C73.9877 66.2507 69.6231 68.581 64.8722 69.524C60.1214 70.467 55.1976 69.98 50.7234 68.125C46.2491 66.2702 42.4251 63.1306 39.7348 59.1029C37.0444 55.0753 35.6085 50.3405 35.6085 45.497C35.6179 38.9985 38.2055 32.7692 42.8034 28.1766C47.4012 23.5841 53.6335 21.0036 60.1321 21.0018ZM60.1321 20.3438C55.1582 20.348 50.2971 21.8267 46.1635 24.5932C42.0298 27.3596 38.8092 31.2895 36.9086 35.886C35.0081 40.4825 34.513 45.5394 35.4859 50.4172C36.4589 55.2951 38.8562 59.775 42.3748 63.2906C45.8934 66.8062 50.3753 69.2 55.254 70.169C60.1327 71.137 65.1891 70.638 69.784 68.734C74.3789 66.8292 78.3065 63.6052 81.0695 59.4693C83.8315 55.3333 85.3065 50.471 85.3065 45.497C85.3055 42.1923 84.6535 38.9202 83.3885 35.8675C82.1225 32.8148 80.2675 30.0413 77.9295 27.7055C75.5921 25.3698 72.8171 23.5174 69.7633 22.2542C66.7095 20.9911 63.4368 20.3419 60.1321 20.3438Z" fill="#D70F0E"/>
<path d="M41.3594 51.7764L40.3999 49.6746L48.6271 44.9246L49.5866 47.0264L46.4228 48.5066L49.6535 54.2624L52.4614 58.6457L50.0365 60.0457L47.8144 55.7168L44.2851 49.764L41.3594 51.7764ZM55.3824 55.412C55.1691 55.0425 55.1152 54.6425 55.2208 54.212C55.3313 53.7634 55.577 53.429 55.9581 53.209C56.7086 52.7757 57.3039 52.9401 57.7439 53.7022C57.9972 54.141 58.0687 54.5847 57.9582 55.0334C57.8593 55.4754 57.6251 55.803 57.2556 56.0164C56.8976 56.223 56.548 56.2709 56.2069 56.16C55.8706 56.0308 55.5958 55.7815 55.3824 55.412ZM62.5824 46.9596C62.1224 46.1628 61.7465 45.6717 61.4546 45.4861C61.1627 45.3005 60.7627 45.3544 60.2546 45.6477C59.7465 45.9411 59.2859 46.4765 58.8726 47.2539L59.6026 48.5183L62.1431 52.4787L60.0721 54.2517L57.85 49.9228C56.9105 48.4022 55.9834 47.0898 55.0689 45.9859L56.9047 44.3255C57.3722 44.9486 57.8066 45.5677 58.2079 46.1827C58.2478 45.8518 58.3141 45.5133 58.4068 45.1672C58.4929 44.8096 58.6926 44.3556 59.006 43.8051C59.3128 43.2431 59.726 42.8121 60.2456 42.5121C60.7768 42.2055 61.3413 42.1566 61.9393 42.3657C62.5306 42.5632 63.0296 43.0141 63.4362 43.7184L64.4523 45.7183L67.0428 49.7653L64.9546 51.5483L62.5824 46.9596ZM68.0007 48.1268C67.7873 47.7573 67.7335 47.3573 67.8391 46.9269C67.9495 46.4782 68.1953 46.1439 68.5763 45.9239C69.3269 45.4905 69.9222 45.6549 70.3622 46.417C70.6155 46.8558 70.6869 47.2995 70.5765 47.7482C70.4775 48.1902 70.2433 48.5179 69.8738 48.7312C69.5159 48.9379 69.1663 48.9857 68.8251 48.8748C68.4888 48.7457 68.214 48.4963 68.0007 48.1268ZM65.9531 37.5772L64.9936 35.4754L73.2209 30.7254L74.1804 32.8272L71.0166 34.3074L74.2473 40.0632L77.0552 44.4465L74.6303 45.8465L72.4081 41.5176L68.8789 35.5647L65.9531 37.5772Z" fill="white"/>
</svg>
