<svg width="146" height="146" viewBox="0 0 146 146" fill="none" xmlns="http://www.w3.org/2000/svg">
<g clip-path="url(#clip0_0_124)">
<path d="M69.5558 88.3788C70.6332 88.3788 71.6864 88.6982 72.5822 89.2968C73.478 89.8954 74.1762 90.7462 74.5885 91.7416C75.0008 92.737 75.1087 93.8323 74.8985 94.889C74.6883 95.9457 74.1695 96.9163 73.4077 97.6782C72.6458 98.44 71.6752 98.9588 70.6185 99.169C69.5618 99.3792 68.4665 99.2713 67.4711 98.859C66.4757 98.4467 65.6249 97.7485 65.0264 96.8527C64.4278 95.9568 64.1083 94.9036 64.1083 93.8262C64.1083 92.3815 64.6822 90.9959 65.7038 89.9743C66.7254 88.9527 68.111 88.3788 69.5558 88.3788ZM69.5558 87.7383C68.3514 87.7369 67.1737 88.0928 66.1716 88.7609C65.1695 89.4291 64.3882 90.3794 63.9263 91.4917C63.4645 92.604 63.343 93.8283 63.5771 95.0097C63.8112 96.1911 64.3905 97.2765 65.2416 98.1286C66.0928 98.9807 67.1775 99.5612 68.3586 99.7967C69.5398 100.032 70.7642 99.912 71.877 99.4514C72.9898 98.9908 73.9411 98.2105 74.6103 97.2092C75.2796 96.2079 75.6368 95.0306 75.6368 93.8262C75.6368 92.2128 74.9963 90.6653 73.8561 89.5238C72.7159 88.3823 71.1692 87.7401 69.5558 87.7383Z" fill="#FCF9F8"/>
<path d="M90.5811 134.473C91.6585 134.473 92.7117 134.792 93.6076 135.391C94.5034 135.989 95.2016 136.84 95.6139 137.835C96.0262 138.831 96.1341 139.926 95.9239 140.983C95.7137 142.039 95.1949 143.01 94.4331 143.772C93.6712 144.534 92.7006 145.053 91.6439 145.263C90.5872 145.473 89.4919 145.365 88.4965 144.953C87.5011 144.54 86.6503 143.842 86.0517 142.946C85.4532 142.051 85.1337 140.997 85.1337 139.92C85.1337 138.475 85.7076 137.09 86.7292 136.068C87.7508 135.046 89.1364 134.473 90.5811 134.473ZM90.5811 133.832C89.3768 133.831 88.1991 134.187 87.197 134.855C86.1949 135.523 85.4136 136.473 84.9517 137.585C84.4899 138.698 84.3683 139.922 84.6025 141.103C84.8366 142.285 85.4159 143.37 86.267 144.222C87.1181 145.074 88.2029 145.655 89.384 145.89C90.5651 146.126 91.7896 146.006 92.9024 145.545C94.0152 145.085 94.9664 144.304 95.6357 143.303C96.3049 142.302 96.6622 141.124 96.6622 139.92C96.6622 138.307 96.0217 136.759 94.8815 135.618C93.7413 134.476 92.1946 133.834 90.5811 133.832Z" fill="#FCF9F8"/>
<path d="M48.5664 134.472C49.6441 134.471 50.698 134.789 51.5948 135.387C52.4915 135.985 53.1908 136.835 53.6041 137.831C54.0175 138.826 54.1264 139.921 53.917 140.978C53.7075 142.036 53.1893 143.007 52.4277 143.769C51.6661 144.532 50.6955 145.051 49.6386 145.262C48.5817 145.473 47.4861 145.366 46.4903 144.953C45.4945 144.541 44.6433 143.843 44.0444 142.947C43.4455 142.051 43.1259 140.998 43.1259 139.92C43.1277 138.477 43.7013 137.093 44.721 136.072C45.7407 135.051 47.1234 134.476 48.5664 134.472ZM48.5664 133.832C47.3624 133.832 46.1853 134.189 45.1842 134.858C44.183 135.527 43.4027 136.478 42.9419 137.59C42.4812 138.703 42.3606 139.927 42.5955 141.108C42.8304 142.289 43.4102 143.373 44.2616 144.225C45.113 145.076 46.1978 145.656 47.3787 145.891C48.5597 146.126 49.7838 146.005 50.8962 145.544C52.0086 145.084 52.9594 144.303 53.6284 143.302C54.2973 142.301 54.6544 141.124 54.6544 139.92C54.6544 139.12 54.4969 138.329 54.191 137.59C53.885 136.852 53.4366 136.18 52.8713 135.615C52.3059 135.05 51.6348 134.601 50.8962 134.295C50.1576 133.989 49.3659 133.832 48.5664 133.832Z" fill="#FCF9F8"/>
<path d="M25.7148 83.7096V70.5352H113.439V83.7096" stroke="#FCF9F8" stroke-width="0.93" stroke-miterlimit="10"/>
<path d="M48.5664 130.408V117.227H90.5758V130.408" stroke="#FCF9F8" stroke-width="0.93" stroke-miterlimit="10"/>
<path d="M69.5566 70.418V83.7095" stroke="#FCF9F8" stroke-width="0.93" stroke-miterlimit="10"/>
<path d="M69.5566 103.934V117.225" stroke="#FCF9F8" stroke-width="0.93" stroke-miterlimit="10"/>
<path d="M69.5566 57.1602V70.5687" stroke="#FCF9F8" stroke-width="0.93" stroke-miterlimit="10"/>
<path d="M14.332 130.406V117.225H25.7159V103.934" stroke="#FCF9F8" stroke-width="0.93" stroke-miterlimit="10"/>
<path d="M124.816 130.406V117.48H113.439V103.934" stroke="#FCF9F8" stroke-width="0.93" stroke-miterlimit="10"/>
<path d="M130.946 135.097V145.311H120.72V135.097H130.946ZM131.58 134.457H120.086V145.958H131.58V134.457Z" fill="#FCF9F8"/>
<path d="M118.164 89.1022V99.3291H107.944V89.1022H118.164ZM118.805 88.4688H107.311V99.9627H118.805V88.4688Z" fill="#FCF9F8"/>
<path d="M25.9021 90.286L30.6609 99.3283H21.6254L25.9021 90.286ZM25.9021 88.8604L20.6406 99.9619H31.7146L25.8746 88.8397L25.9021 88.8604Z" fill="#FCF9F8"/>
<path d="M14.4004 136.358L19.1592 145.394H10.1237L14.4004 136.358ZM14.4004 134.933L9.11133 146H20.2197L14.3728 134.898L14.4004 134.933Z" fill="#FCF9F8"/>
<circle cx="69.7305" cy="29.5" r="25.5" fill="#D70F0E"/>
<path d="M69.1321 5.00176C73.9756 5.00736 78.7087 6.44865 82.7333 9.14365C86.7575 11.8387 89.8925 15.6663 91.7425 20.1427C93.5925 24.6191 94.0735 29.5434 93.1245 34.2932C92.1765 39.0429 89.8415 43.4049 86.4145 46.8278C82.9877 50.2507 78.6231 52.581 73.8722 53.524C69.1214 54.467 64.1976 53.98 59.7234 52.125C55.2491 50.2702 51.4251 47.1306 48.7348 43.1029C46.0444 39.0753 44.6085 34.3405 44.6085 29.497C44.6179 22.9985 47.2055 16.7692 51.8034 12.1766C56.4012 7.58406 62.6335 5.00356 69.1321 5.00176ZM69.1321 4.34375C64.1582 4.34795 59.2971 5.82666 55.1635 8.59316C51.0298 11.3596 47.8092 15.2895 45.9086 19.886C44.0081 24.4825 43.513 29.5394 44.4859 34.4172C45.4589 39.2951 47.8562 43.775 51.3748 47.2906C54.8934 50.8062 59.3753 53.2 64.254 54.169C69.1327 55.137 74.1891 54.638 78.784 52.734C83.3789 50.8292 87.3065 47.6052 90.0695 43.4693C92.8315 39.3333 94.3065 34.471 94.3065 29.497C94.3055 26.1923 93.6535 22.9202 92.3885 19.8675C91.1225 16.8148 89.2675 14.0413 86.9295 11.7055C84.5921 9.36976 81.8171 7.51735 78.7633 6.25415C75.7095 4.99105 72.4368 4.34185 69.1321 4.34375Z" fill="#D70F0E"/>
<path d="M50.3594 35.7764L49.3999 33.6746L57.6271 28.9246L58.5866 31.0264L55.4228 32.5066L58.6535 38.2624L61.4614 42.6457L59.0365 44.0457L56.8144 39.7168L53.2851 33.764L50.3594 35.7764ZM64.3824 39.412C64.1691 39.0425 64.1152 38.6425 64.2208 38.212C64.3313 37.7634 64.577 37.429 64.9581 37.209C65.7086 36.7757 66.3039 36.9401 66.7439 37.7022C66.9972 38.141 67.0687 38.5847 66.9582 39.0334C66.8593 39.4754 66.6251 39.803 66.2556 40.0164C65.8976 40.223 65.548 40.2709 65.2069 40.16C64.8706 40.0308 64.5958 39.7815 64.3824 39.412ZM71.5824 30.9596C71.1224 30.1628 70.7465 29.6717 70.4546 29.4861C70.1627 29.3005 69.7627 29.3544 69.2546 29.6477C68.7465 29.9411 68.2859 30.4765 67.8726 31.2539L68.6026 32.5183L71.1431 36.4787L69.0721 38.2517L66.85 33.9228C65.9105 32.4022 64.9834 31.0898 64.0689 29.9859L65.9047 28.3255C66.3722 28.9486 66.8066 29.5677 67.2079 30.1827C67.2478 29.8518 67.3141 29.5133 67.4068 29.1672C67.4929 28.8096 67.6926 28.3556 68.006 27.8051C68.3128 27.2431 68.726 26.8121 69.2456 26.5121C69.7768 26.2055 70.3413 26.1566 70.9393 26.3657C71.5306 26.5632 72.0296 27.0141 72.4362 27.7184L73.4523 29.7183L76.0428 33.7653L73.9546 35.5483L71.5824 30.9596ZM77.0007 32.1268C76.7873 31.7573 76.7335 31.3573 76.8391 30.9269C76.9495 30.4782 77.1953 30.1439 77.5763 29.9239C78.3269 29.4905 78.9222 29.6549 79.3622 30.417C79.6155 30.8558 79.6869 31.2995 79.5765 31.7482C79.4775 32.1902 79.2433 32.5179 78.8738 32.7312C78.5159 32.9379 78.1663 32.9857 77.8251 32.8748C77.4888 32.7457 77.214 32.4963 77.0007 32.1268ZM74.9531 21.5772L73.9936 19.4754L82.2209 14.7254L83.1804 16.8272L80.0166 18.3074L83.2473 24.0632L86.0552 28.4465L83.6303 29.8465L81.4081 25.5176L77.8789 19.5647L74.9531 21.5772Z" fill="white"/>
</g>
<defs>
<clipPath id="clip0_0_124">
<rect width="146" height="146" fill="white"/>
</clipPath>
</defs>
</svg>
