<svg width="167" height="167" viewBox="0 0 167 167" fill="none" xmlns="http://www.w3.org/2000/svg">
<path d="M40.5481 47.214C40.5481 47.214 41.3716 39.1824 39 35C37.0585 31.5762 31.5481 28.214 31.5481 28.214" stroke="white"/>
<path d="M52 47.214C52 47.214 52.8235 39.1824 50.4519 35C48.5104 31.5762 43 28.214 43 28.214" stroke="white"/>
<path d="M63.9038 47.214C63.9038 47.214 64.7273 39.1824 62.3557 35C60.4142 31.5762 54.9038 28.214 54.9038 28.214" stroke="white"/>
<path d="M74.3557 47.214C74.3557 47.214 75.1792 39.1824 72.8076 35C70.8661 31.5762 65.3557 28.214 65.3557 28.214" stroke="white"/>
<path d="M85 47.6484C85 47.6484 85.8235 39.6169 83.4519 35.4344C81.5104 32.0106 76 28.6484 76 28.6484" stroke="white"/>
<path d="M96 47.6484C96 47.6484 96.8235 39.6169 94.4519 35.4344C92.5104 32.0106 87 28.6484 87 28.6484" stroke="white"/>
<path d="M107 47.6484C107 47.6484 107.824 39.6169 105.452 35.4344C103.51 32.0106 98 28.6484 98 28.6484" stroke="white"/>
<path d="M115 46.6484C115 46.6484 115.824 38.6169 113.452 34.4344C111.51 31.0106 106 27.6484 106 27.6484" stroke="white"/>
<path d="M126 47.6484C126 47.6484 126.824 39.6169 124.452 35.4344C122.51 32.0106 117 28.6484 117 28.6484" stroke="white"/>
<rect x="38" y="47" width="7" height="32" fill="#C4C4C4"/>
<rect x="49" y="47" width="7" height="32" fill="#C4C4C4"/>
<rect x="60" y="47" width="7" height="32" fill="#C4C4C4"/>
<rect x="70" y="47" width="7" height="32" fill="#C4C4C4"/>
<rect x="81" y="47" width="7" height="32" fill="#C4C4C4"/>
<rect x="92" y="47" width="7" height="32" fill="#C4C4C4"/>
<rect x="103" y="47" width="7" height="32" fill="#C4C4C4"/>
<rect x="112" y="47" width="7" height="32" fill="#C4C4C4"/>
<rect x="122" y="47" width="7" height="32" fill="#C4C4C4"/>
<rect x="36" y="77" width="96" height="83" fill="#D70F0E"/>
<path d="M70.9163 108.1L69.9363 104.2H65.1563L64.0963 108L61.5363 107.8L63.2963 102.94L65.9763 94.34L69.5563 94.08L72.1363 102.64L73.7963 107.66L70.9163 108.1ZM67.7563 96.68H67.4963L65.7763 102.08H69.3363L67.7563 96.68ZM78.6879 100.3C78.1012 100.3 77.6479 100.513 77.3279 100.94C77.0079 101.353 76.8479 101.993 76.8479 102.86C76.8479 103.727 77.0079 104.427 77.3279 104.96C77.6612 105.48 78.1412 105.74 78.7679 105.74C79.0879 105.74 79.4012 105.64 79.7079 105.44C80.0146 105.24 80.2479 105.04 80.4079 104.84L80.6279 104.52L81.6279 105.56C81.5879 105.627 81.5346 105.72 81.4679 105.84C81.4146 105.96 81.2679 106.173 81.0279 106.48C80.8012 106.787 80.5546 107.06 80.2879 107.3C80.0346 107.527 79.7012 107.74 79.2879 107.94C78.8746 108.127 78.4412 108.22 77.9879 108.22C76.9879 108.22 76.1746 107.813 75.5479 107C74.9212 106.187 74.6079 105.127 74.6079 103.82C74.6079 102.193 75.0812 100.767 76.0279 99.54C76.9746 98.3133 78.0812 97.7 79.3479 97.7C79.7346 97.7 80.1212 97.76 80.5079 97.88C80.8946 97.9867 81.2879 98.16 81.6879 98.4L80.2879 100.86C79.8079 100.487 79.2746 100.3 78.6879 100.3ZM88.7432 102.94C88.7432 102.02 88.6632 101.407 88.5032 101.1C88.3432 100.793 87.9699 100.64 87.3832 100.64C86.7965 100.64 86.1299 100.873 85.3832 101.34V102.8L85.6032 107.5L82.9232 108L83.1632 103.14C83.1099 101.353 82.9632 99.7533 82.7232 98.34L85.1432 97.82C85.2365 98.5933 85.3032 99.3467 85.3432 100.08C85.5432 99.8133 85.7699 99.5533 86.0232 99.3C86.2765 99.0333 86.6765 98.74 87.2232 98.42C87.7699 98.0867 88.3232 97.92 88.8832 97.92C89.4432 97.92 89.9165 98.1 90.3032 98.46C90.6899 98.82 90.9365 99.3133 91.0432 99.94C92.1499 98.5933 93.2699 97.92 94.4032 97.92C95.1099 97.92 95.6699 98.16 96.0832 98.64C96.4965 99.1067 96.7032 99.7467 96.7032 100.56L96.5832 102.8L96.8032 107.6L94.1032 108.1L94.3432 102.94C94.3432 102.02 94.2632 101.407 94.1032 101.1C93.9432 100.793 93.5765 100.64 93.0032 100.64C92.4299 100.64 91.7832 100.86 91.0632 101.3L90.9832 102.8L91.2032 107.6L88.5032 108.1L88.7432 102.94ZM102.598 105.96C102.985 105.96 103.391 105.86 103.818 105.66C104.245 105.46 104.578 105.26 104.818 105.06L105.178 104.76L106.098 105.88C105.965 106.107 105.758 106.367 105.478 106.66C105.198 106.953 104.911 107.207 104.618 107.42C104.338 107.62 103.958 107.807 103.478 107.98C103.011 108.14 102.525 108.22 102.018 108.22C100.938 108.22 100.058 107.813 99.3779 107C98.6979 106.173 98.3579 105.113 98.3579 103.82C98.3579 102.193 98.8312 100.767 99.7779 99.54C100.725 98.3133 101.831 97.7 103.098 97.7C104.071 97.7 104.825 97.9733 105.358 98.52C105.905 99.0667 106.178 99.8333 106.178 100.82C106.178 101.407 106.078 102.073 105.878 102.82L105.478 103.24L100.478 103.7C100.705 105.207 101.411 105.96 102.598 105.96ZM102.598 99.76C102.011 99.76 101.518 100 101.118 100.48C100.718 100.947 100.485 101.547 100.418 102.28L103.818 101.86C103.858 101.553 103.878 101.3 103.878 101.1C103.878 100.207 103.451 99.76 102.598 99.76ZM62.8867 121.5L63.1067 119.2H72.6067L72.3867 121.5L68.9067 121.2L68.8267 127.8L69.0667 133H66.2667L66.5067 128.14L66.4267 121.22L62.8867 121.5ZM73.2133 131.66C73.2133 131.233 73.3666 130.86 73.6733 130.54C73.9933 130.207 74.3733 130.04 74.8133 130.04C75.6799 130.04 76.1133 130.48 76.1133 131.36C76.1133 131.867 75.9533 132.287 75.6333 132.62C75.3266 132.953 74.9599 133.12 74.5333 133.12C74.1199 133.12 73.7933 132.987 73.5533 132.72C73.3266 132.44 73.2133 132.087 73.2133 131.66ZM83.6748 127.94C83.6748 127.02 83.5948 126.407 83.4348 126.1C83.2748 125.793 82.9015 125.64 82.3148 125.64C81.7282 125.64 81.0615 125.873 80.3148 126.34V127.8L80.5348 132.5L77.8548 133L78.0948 128.14C78.0415 126.353 77.8948 124.753 77.6548 123.34L80.0748 122.82C80.1682 123.593 80.2348 124.347 80.2748 125.08C80.4748 124.813 80.7015 124.553 80.9548 124.3C81.2082 124.033 81.6082 123.74 82.1548 123.42C82.7015 123.087 83.2748 122.92 83.8748 122.92C84.4882 122.92 85.0015 123.16 85.4148 123.64C85.8282 124.107 86.0348 124.747 86.0348 125.56L85.9148 127.8L86.1348 132.6L83.4348 133.1L83.6748 127.94ZM87.7836 131.66C87.7836 131.233 87.9369 130.86 88.2436 130.54C88.5636 130.207 88.9436 130.04 89.3836 130.04C90.2503 130.04 90.6836 130.48 90.6836 131.36C90.6836 131.867 90.5236 132.287 90.2036 132.62C89.8969 132.953 89.5303 133.12 89.1036 133.12C88.6903 133.12 88.3636 132.987 88.1236 132.72C87.8969 132.44 87.7836 132.087 87.7836 131.66ZM91.2852 121.5L91.5052 119.2H101.005L100.785 121.5L97.3052 121.2L97.2252 127.8L97.4652 133H94.6652L94.9052 128.14L94.8252 121.22L91.2852 121.5ZM101.612 131.66C101.612 131.233 101.765 130.86 102.072 130.54C102.392 130.207 102.772 130.04 103.212 130.04C104.078 130.04 104.512 130.48 104.512 131.36C104.512 131.867 104.352 132.287 104.032 132.62C103.725 132.953 103.358 133.12 102.932 133.12C102.518 133.12 102.192 132.987 101.952 132.72C101.725 132.44 101.612 132.087 101.612 131.66Z" fill="white"/>
<path d="M29.25 23L31.2188 25.0952L33.2358 23L32.625 25.4802L36 26.0476L33.2358 27.9524L34.5 29.4762H32.25L31.5 31L30.375 29.4762L28.125 30.619L29.25 27.9524H27.375L29.25 26.8095L27 24.5238L29.25 25.4802V23Z" fill="#FFC700"/>
<path d="M41.25 23L43.2188 25.0952L45.2358 23L44.625 25.4802L48 26.0476L45.2358 27.9524L46.5 29.4762H44.25L43.5 31L42.375 29.4762L40.125 30.619L41.25 27.9524H39.375L41.25 26.8095L39 24.5238L41.25 25.4802V23Z" fill="#FFC700"/>
<path d="M54.25 23L56.2188 25.0952L58.2358 23L57.625 25.4802L61 26.0476L58.2358 27.9524L59.5 29.4762H57.25L56.5 31L55.375 29.4762L53.125 30.619L54.25 27.9524H52.375L54.25 26.8095L52 24.5238L54.25 25.4802V23Z" fill="#FFC700"/>
<path d="M65.25 23L67.2188 25.0952L69.2358 23L68.625 25.4802L72 26.0476L69.2358 27.9524L70.5 29.4762H68.25L67.5 31L66.375 29.4762L64.125 30.619L65.25 27.9524H63.375L65.25 26.8095L63 24.5238L65.25 25.4802V23Z" fill="#FFC700"/>
<path d="M74.25 23L76.2188 25.0952L78.2358 23L77.625 25.4802L81 26.0476L78.2358 27.9524L79.5 29.4762H77.25L76.5 31L75.375 29.4762L73.125 30.619L74.25 27.9524H72.375L74.25 26.8095L72 24.5238L74.25 25.4802V23Z" fill="#FFC700"/>
<path d="M83.25 23L85.2188 25.0952L87.2358 23L86.625 25.4802L90 26.0476L87.2358 27.9524L88.5 29.4762H86.25L85.5 31L84.375 29.4762L82.125 30.619L83.25 27.9524H81.375L83.25 26.8095L81 24.5238L83.25 25.4802V23Z" fill="#FFC700"/>
<path d="M95.25 23L97.2188 25.0952L99.2358 23L98.625 25.4802L102 26.0476L99.2358 27.9524L100.5 29.4762H98.25L97.5 31L96.375 29.4762L94.125 30.619L95.25 27.9524H93.375L95.25 26.8095L93 24.5238L95.25 25.4802V23Z" fill="#FFC700"/>
<path d="M105.25 23L107.219 25.0952L109.236 23L108.625 25.4802L112 26.0476L109.236 27.9524L110.5 29.4762H108.25L107.5 31L106.375 29.4762L104.125 30.619L105.25 27.9524H103.375L105.25 26.8095L103 24.5238L105.25 25.4802V23Z" fill="#FFC700"/>
<path d="M116.25 23L118.219 25.0952L120.236 23L119.625 25.4802L123 26.0476L120.236 27.9524L121.5 29.4762H119.25L118.5 31L117.375 29.4762L115.125 30.619L116.25 27.9524H114.375L116.25 26.8095L114 24.5238L116.25 25.4802V23Z" fill="#FFC700"/>
</svg>
