<svg width="145" height="146" viewBox="0 0 145 146" fill="none" xmlns="http://www.w3.org/2000/svg">
<path d="M56.3999 112.669L45.99 129.426H13.7754C13.7754 129.426 32.8785 87.9297 58.3219 87.9297C78.5193 87.9297 103.552 93.9007 103.552 93.9007C103.867 93.987 104.158 94.1431 104.405 94.3575C104.651 94.5718 104.846 94.8388 104.975 95.1386C105.214 95.9184 103.566 101.486 98.3268 101.773L74.5523 102.067" stroke="#FCF9F8" stroke-miterlimit="10"/>
<path d="M100.386 101.312C92.8283 108.836 85.4416 112.557 79.9699 112.557H52.5566" stroke="#FCF9F8" stroke-miterlimit="10"/>
<path d="M92.123 91.6497C92.123 91.6497 100.385 86.6841 102.382 85.0358L109.728 78.3261C112.464 75.9117 116.965 74.4891 120.029 76.4863L120.473 76.7804C120.718 76.9385 120.925 77.1497 121.077 77.3982C121.23 77.6468 121.325 77.9264 121.355 78.2165C121.385 78.5066 121.35 78.7998 121.252 79.0745C121.154 79.3491 120.995 79.5983 120.788 79.8035C120.788 79.8035 105.057 96.0271 104.776 96.3691" stroke="#FCF9F8" stroke-miterlimit="10"/>
<path d="M120.042 76.4871L122.97 73.6828C123.174 73.4879 123.33 73.2491 123.428 72.9846C123.526 72.7201 123.563 72.4368 123.535 72.1561C123.507 71.8754 123.416 71.6047 123.269 71.3644C123.121 71.1242 122.92 70.9206 122.683 70.7692C120.956 69.6684 118.917 69.1621 116.876 69.3276C114.835 69.493 112.904 70.3211 111.377 71.6857L101.911 80.1805C101.09 80.9158 100.204 81.5751 99.2637 82.1503L86.5488 90.5015" stroke="#FCF9F8" stroke-miterlimit="10"/>
<circle cx="66.7305" cy="50.5" r="25.5" fill="#D70F0E"/>
<path d="M66.1321 26.0018C70.9756 26.0074 75.7087 27.4487 79.7333 30.1437C83.7575 32.8387 86.8925 36.6663 88.7425 41.1427C90.5925 45.6191 91.0735 50.5434 90.1245 55.2932C89.1765 60.0429 86.8415 64.4049 83.4145 67.8278C79.9877 71.2507 75.6231 73.581 70.8722 74.524C66.1214 75.467 61.1976 74.98 56.7234 73.125C52.2491 71.2702 48.4251 68.1306 45.7348 64.1029C43.0444 60.0753 41.6085 55.3405 41.6085 50.497C41.6179 43.9985 44.2055 37.7692 48.8034 33.1766C53.4012 28.5841 59.6335 26.0036 66.1321 26.0018ZM66.1321 25.3438C61.1582 25.348 56.2971 26.8267 52.1635 29.5932C48.0298 32.3596 44.8092 36.2895 42.9086 40.886C41.0081 45.4825 40.513 50.5394 41.4859 55.4172C42.4589 60.2951 44.8562 64.775 48.3748 68.2906C51.8934 71.8062 56.3753 74.2 61.254 75.169C66.1327 76.137 71.1891 75.638 75.784 73.734C80.3789 71.8292 84.3065 68.6052 87.0695 64.4693C89.8315 60.3333 91.3065 55.471 91.3065 50.497C91.3055 47.1923 90.6535 43.9202 89.3885 40.8675C88.1225 37.8148 86.2675 35.0413 83.9295 32.7055C81.5921 30.3698 78.8171 28.5174 75.7633 27.2542C72.7095 25.9911 69.4368 25.3419 66.1321 25.3438Z" fill="#D70F0E"/>
<path d="M47.3594 56.7764L46.3999 54.6746L54.6271 49.9246L55.5866 52.0264L52.4228 53.5066L55.6535 59.2624L58.4614 63.6457L56.0365 65.0457L53.8144 60.7168L50.2851 54.764L47.3594 56.7764ZM61.3824 60.412C61.1691 60.0425 61.1152 59.6425 61.2208 59.212C61.3313 58.7634 61.577 58.429 61.9581 58.209C62.7086 57.7757 63.3039 57.9401 63.7439 58.7022C63.9972 59.141 64.0687 59.5847 63.9582 60.0334C63.8593 60.4754 63.6251 60.803 63.2556 61.0164C62.8976 61.223 62.548 61.2709 62.2069 61.16C61.8706 61.0308 61.5958 60.7815 61.3824 60.412ZM68.5824 51.9596C68.1224 51.1628 67.7465 50.6717 67.4546 50.4861C67.1627 50.3005 66.7627 50.3544 66.2546 50.6477C65.7465 50.9411 65.2859 51.4765 64.8726 52.2539L65.6026 53.5183L68.1431 57.4787L66.0721 59.2517L63.85 54.9228C62.9105 53.4022 61.9834 52.0898 61.0689 50.9859L62.9047 49.3255C63.3722 49.9486 63.8066 50.5677 64.2079 51.1827C64.2478 50.8518 64.3141 50.5133 64.4068 50.1672C64.4929 49.8096 64.6926 49.3556 65.006 48.8051C65.3128 48.2431 65.726 47.8121 66.2456 47.5121C66.7768 47.2055 67.3413 47.1566 67.9393 47.3657C68.5306 47.5632 69.0296 48.0141 69.4362 48.7184L70.4523 50.7183L73.0428 54.7653L70.9546 56.5483L68.5824 51.9596ZM74.0007 53.1268C73.7873 52.7573 73.7335 52.3573 73.8391 51.9269C73.9495 51.4782 74.1953 51.1439 74.5763 50.9239C75.3269 50.4905 75.9222 50.6549 76.3622 51.417C76.6155 51.8558 76.6869 52.2995 76.5765 52.7482C76.4775 53.1902 76.2433 53.5179 75.8738 53.7312C75.5159 53.9379 75.1663 53.9857 74.8251 53.8748C74.4888 53.7457 74.214 53.4963 74.0007 53.1268ZM71.9531 42.5772L70.9936 40.4754L79.2209 35.7254L80.1804 37.8272L77.0166 39.3074L80.2473 45.0632L83.0552 49.4465L80.6303 50.8465L78.4081 46.5176L74.8789 40.5647L71.9531 42.5772Z" fill="white"/>
</svg>
