<svg width="813" height="530" viewBox="0 0 813 530" fill="none" xmlns="http://www.w3.org/2000/svg">
<g clip-path="url(#clip0_0_60)">
<path d="M417.527 186.663L417.519 186.637L399.208 122.469C397.589 118.542 395.966 114.637 394.347 110.786L386.303 114.239C386.303 114.239 386.303 114.239 386.303 114.239C383.122 115.606 379.529 115.654 376.314 114.374L376.314 114.374C373.098 113.093 370.522 110.589 369.154 107.412L369.154 107.412L367.609 103.821L367.411 103.361L367.871 103.164L381.474 97.3221C380.226 97.2794 378.985 97.0846 377.777 96.7396C375.569 96.1155 373.529 95.0064 371.804 93.4933L371.804 93.4932C370.08 91.9799 368.717 90.1007 367.814 87.9932C367.814 87.9931 367.813 87.993 367.813 87.9929L365.971 83.7224L365.772 83.2625L366.233 83.0649L370.073 81.4158C367.897 79.4062 366.276 76.8645 365.373 74.0358C365.373 74.0356 365.373 74.0355 365.373 74.0354L362.5 65.1089L362.5 65.108C362.168 64.0698 360.645 64.2383 360.551 65.3279L360.551 65.3283C360.134 70.1095 358.806 74.7671 356.638 79.0503L417.527 186.663ZM417.527 186.663L417.537 186.688L424.825 204.665M417.527 186.663L424.825 204.665M424.825 204.665L372.503 218.882L360.54 167.886L360.54 167.886L360.538 167.878L342.268 95.2817L347.899 90.3282C350.946 87.6525 353.539 84.5018 355.578 80.9984M424.825 204.665L356.638 79.0504C356.305 79.7095 355.952 80.3589 355.578 80.9984M355.578 80.9984C355.578 80.9986 355.578 80.9988 355.578 80.9989L355.146 80.7464L355.578 80.9979C355.578 80.9981 355.578 80.9983 355.578 80.9984Z" fill="#D70F0E" stroke="black"/>
<path d="M389.199 52.5552L389.215 52.6403L388.253 53.0546C387.757 53.2677 387.25 53.4544 386.735 53.6139L389.199 52.5552Z" fill="#211F1E" stroke="#211F1E" stroke-width="1.17" stroke-miterlimit="10"/>
<path d="M269.621 98.5253L268.73 94.7485L248.95 100.447L251.466 109.54L274.468 192.805L275.998 198.328L292.513 190.043L269.621 98.5253Z" stroke="#211F1E" stroke-width="1.17" stroke-miterlimit="10"/>
<path d="M50.0438 164.648L247.886 96.583L277.749 204.683L97.8732 300.552" stroke="#211F1E" stroke-width="1.17" stroke-miterlimit="10"/>
<path d="M268.015 111.372C268.016 112.383 267.716 113.37 267.155 114.211C266.593 115.051 265.795 115.706 264.861 116.092C263.927 116.479 262.899 116.581 261.907 116.384C260.915 116.187 260.004 115.7 259.289 114.986C258.574 114.271 258.087 113.361 257.89 112.37C257.693 111.38 257.794 110.352 258.181 109.419C258.568 108.486 259.224 107.688 260.065 107.127C260.906 106.566 261.895 106.267 262.906 106.268C264.261 106.268 265.56 106.806 266.518 107.763C267.476 108.721 268.015 110.019 268.015 111.372Z" stroke="#211F1E" stroke-width="1.17" stroke-miterlimit="10"/>
<path d="M385.679 54.0649L381.028 39.5953C380.582 38.2058 379.989 36.8679 379.259 35.6044L389.326 31.2799L400.969 26.2764C404.546 24.7368 408.528 24.4072 412.31 25.3377C416.092 26.2683 419.466 28.408 421.918 31.4311C424.37 34.4542 425.766 38.1951 425.893 42.0841C426.021 45.973 424.873 49.7971 422.624 52.974C420.42 50.0678 417.379 47.9049 413.909 46.776C410.439 45.647 406.707 45.6061 403.213 46.6586" stroke="#211F1E" stroke-width="1.17" stroke-miterlimit="10"/>
<path d="M426.229 63.7401C426.225 67.8141 424.832 71.7652 422.278 74.9416C420.204 72.0054 417.292 69.7626 413.921 68.5066C410.551 67.2505 406.88 67.0395 403.388 67.9013L402.559 68.1314C401.901 68.3247 401.255 68.5552 400.623 68.8219L392.839 72.166L391.669 72.6677L390.664 69.5468L388.893 64.037L385.682 54.0554L386.737 53.5951C387.252 53.4356 387.759 53.2489 388.255 53.0358L389.218 52.6215L402.948 46.725C403.031 46.6951 403.118 46.6675 403.204 46.6445C405.872 45.8392 408.692 45.6688 411.438 46.1468C414.184 46.6248 416.78 47.7381 419.019 49.3975C421.258 51.057 423.077 53.2166 424.331 55.7038C425.584 58.1911 426.239 60.9368 426.241 63.7217L426.229 63.7401Z" stroke="#211F1E" stroke-width="1.17" stroke-miterlimit="10"/>
<path d="M394.728 82.2031L394.696 82.2146L394.65 81.9639L394.728 82.2031Z" fill="#211F1E" stroke="#211F1E" stroke-width="1.17" stroke-miterlimit="10"/>
<path d="M392.837 72.1752L400.621 68.8311C401.253 68.5644 401.899 68.3339 402.556 68.1406L403.386 67.9105C407.526 66.8846 411.898 67.373 415.709 69.2875C419.521 71.2019 422.521 74.4159 424.166 78.3481C425.812 82.2803 425.994 86.6711 424.681 90.7261C423.367 94.7811 420.645 98.2326 417.005 100.456C416.865 100.017 416.699 99.5793 416.512 99.1444C415.734 97.3353 414.607 95.6972 413.195 94.3235C411.783 92.9497 410.114 91.8674 408.283 91.1381C406.452 90.4089 404.496 90.0472 402.525 90.0735C400.554 90.0998 398.608 90.5137 396.797 91.2916L396.408 91.4573L388.177 94.9947L384.309 96.6564C382.176 96.9902 379.996 96.856 377.921 96.2629C375.784 95.6591 373.81 94.5858 372.141 93.1216C370.473 91.6574 369.154 89.8393 368.28 87.8002L366.437 83.5286L371.003 81.5677C372.787 83.0697 374.865 84.1835 377.104 84.8382C379.343 85.4928 381.694 85.6739 384.007 85.3698C385.005 85.2393 385.989 85.0182 386.947 84.7093L388.847 84.0993L394.701 82.2236L394.733 82.2121L394.655 81.982L393.627 78.792L392.978 76.7667L391.706 72.815" stroke="#211F1E" stroke-width="1.17" stroke-miterlimit="10"/>
<path d="M394.728 82.2031L394.696 82.2146L394.65 81.9639L394.728 82.2031Z" fill="#211F1E" stroke="#211F1E" stroke-width="1.17" stroke-miterlimit="10"/>
<path d="M398.294 108.507L386.113 113.78C383.054 115.094 379.598 115.14 376.505 113.908C373.413 112.677 370.936 110.269 369.62 107.214L368.075 103.623L384.306 96.6473L388.174 94.9856L396.403 91.4481L396.792 91.2824C398.603 90.5046 400.549 90.0907 402.52 90.0643C404.491 90.038 406.447 90.3998 408.278 91.129C410.109 91.8582 411.778 92.9406 413.19 94.3143C414.602 95.688 415.729 97.3262 416.507 99.1352C416.694 99.5702 416.86 100.007 417 100.447C418.153 104 417.935 107.855 416.39 111.256C414.845 114.656 412.083 117.358 408.647 118.829L400.057 122.139L400.031 122.15L399.677 122.305" stroke="#211F1E" stroke-width="1.17" stroke-miterlimit="10"/>
<path d="M394.696 82.2145L388.842 84.0903L386.942 84.7002C385.984 85.0091 385 85.2302 384.002 85.3607C380.11 85.8759 376.159 85.0084 372.842 82.9096C369.524 80.8109 367.05 77.6144 365.851 73.8785L362.979 64.9417C362.479 63.3812 360.196 63.639 360.055 65.2708C359.643 69.9886 358.333 74.5843 356.194 78.8106C355.866 79.4612 355.517 80.1018 355.148 80.7324C353.137 84.1894 350.578 87.2983 347.572 89.9384L341.711 95.0938C341.711 95.0938 323.512 142.314 316.237 164.634L290.502 181.997L269.621 98.5254L293.119 84.256L318.768 47.487V47.4709C323.705 39.6351 331.247 33.7876 340.071 30.9552L344.367 29.5743L354.925 26.1841C358.835 24.9318 363.029 24.8646 366.977 25.991C370.925 27.1174 374.451 29.387 377.11 32.5133C378.871 34.5934 380.209 36.9976 381.047 39.5905L385.654 53.9036L385.705 54.0601L388.916 64.0418L390.688 69.5516L391.692 72.6725L391.727 72.7875L392.998 76.7392L393.648 78.7646L394.675 81.9545L394.696 82.2145Z" stroke="#211F1E" stroke-width="1.17" stroke-miterlimit="10"/>
<path d="M394.728 82.2031L394.696 82.2146L394.65 81.9639L394.728 82.2031Z" stroke="#211F1E" stroke-width="1.17" stroke-miterlimit="10"/>
<path d="M390.552 68.7485C389.274 69.2685 388.231 70.2371 387.619 71.4719C387.007 72.7067 386.867 74.1226 387.227 75.4529L387.974 78.2147" stroke="#211F1E" stroke-width="1.17" stroke-miterlimit="10"/>
<path d="M377.052 99.7661C377.624 100.877 377.733 102.168 377.358 103.359C376.982 104.55 376.151 105.545 375.045 106.128L373.926 106.719" stroke="#211F1E" stroke-width="1.17" stroke-miterlimit="10"/>
<path d="M582.284 226.476L582.241 226.957" stroke="#211F1E" stroke-miterlimit="10"/>
<path d="M542.227 222.962L545.552 185.164C545.803 182.276 545.351 179.371 544.233 176.696C543.116 174.021 541.367 171.656 539.136 169.804L532.865 164.598L503.878 140.586C499.911 145.366 498.007 151.524 498.585 157.707C499.162 163.889 502.174 169.589 506.958 173.553L521.957 185.981L521.842 189.514" stroke="#211F1E" stroke-miterlimit="10"/>
<path d="M541.366 232.84L545.559 185.164C545.81 182.277 545.358 179.371 544.24 176.696C543.123 174.021 541.374 171.656 539.143 169.804L532.865 164.598C532.935 161.497 533.627 158.441 534.899 155.611C536.171 152.782 537.998 150.236 540.272 148.124L563.422 172.69L563.493 172.775C564.956 174.353 566.072 176.22 566.769 178.255C567.466 180.29 567.728 182.448 567.538 184.591L563.129 234.75" stroke="#211F1E" stroke-miterlimit="10"/>
<path d="M564.002 224.872L567.543 184.596C567.732 182.453 567.47 180.294 566.774 178.259C566.077 176.224 564.961 174.357 563.497 172.78C564.258 166.772 567.318 161.293 572.035 157.491C576.752 153.689 582.759 151.859 588.797 152.386L582.24 226.955L578.243 272.431" stroke="#211F1E" stroke-miterlimit="10"/>
<path d="M624.091 314.796L612.961 301.536L549.054 355.072L560.183 368.332L624.091 314.796Z" stroke="#211F1E" stroke-miterlimit="10"/>
<path d="M630.729 525.459L550.341 376.588L633.749 306.714L812.91 529.926" stroke="#211F1E" stroke-miterlimit="10"/>
<path d="M578.243 272.433L606.922 306.601L553.251 351.564L529.688 323.49" stroke="#211F1E" stroke-miterlimit="10"/>
<path d="M611.428 318.256C613.716 318.256 615.57 316.404 615.57 314.118C615.57 311.833 613.716 309.98 611.428 309.98C609.141 309.98 607.286 311.833 607.286 314.118C607.286 316.404 609.141 318.256 611.428 318.256Z" stroke="#211F1E" stroke-miterlimit="10"/>
<path d="M535.952 330.951L531.633 330.518L465.867 324.749C462.358 324.441 459.027 323.065 456.325 320.807C453.624 318.548 451.68 315.517 450.757 312.12L442.265 280.88L446.583 279.708C448.769 279.114 451.051 278.956 453.299 279.243C455.546 279.53 457.715 280.256 459.682 281.381C461.648 282.505 463.373 284.006 464.759 285.797C466.145 287.588 467.164 289.634 467.758 291.819L470.147 300.592" stroke="#211F1E" stroke-miterlimit="10"/>
<path d="M470.147 300.592L479.452 296.737C484.13 294.799 488.187 291.617 491.182 287.536C494.176 283.456 495.994 278.633 496.437 273.593L502.675 203.548L483.769 189.898C478.981 186.184 475.865 180.721 475.108 174.712C474.351 168.703 476.015 162.64 479.733 157.856L480.147 157.322L523.618 191.044C525.29 192.346 526.673 193.981 527.678 195.845C528.684 197.709 529.29 199.762 529.458 201.873V202.676L526.848 232.366" stroke="#211F1E" stroke-miterlimit="10"/>
<path d="M493.389 167.59C492.651 168.457 491.599 168.999 490.463 169.095C489.328 169.192 488.2 168.836 487.325 168.105L482.743 164.275" stroke="#211F1E" stroke-miterlimit="10"/>
<path d="M445.295 292.486C446.502 292.176 447.552 291.43 448.241 290.392C448.931 289.354 449.211 288.098 449.029 286.866L448.568 283.772" stroke="#211F1E" stroke-miterlimit="10"/>
<path d="M383.262 120.141L387.819 119.376L392.737 137.728L388.18 138.494L386.958 131.616L374.166 134.877L364.245 138.033L362.796 132.624L372.309 130.572L385.636 126.835L383.262 120.141ZM368.98 145.35C369.804 145.129 370.605 145.232 371.382 145.659C372.191 146.104 372.71 146.752 372.938 147.602C373.386 149.276 372.761 150.341 371.061 150.797C370.082 151.059 369.188 150.967 368.378 150.522C367.575 150.102 367.064 149.48 366.843 148.655C366.629 147.857 366.717 147.157 367.108 146.555C367.532 145.972 368.156 145.571 368.98 145.35ZM381.582 163.634C383.359 163.158 384.503 162.686 385.012 162.218C385.522 161.75 385.625 160.95 385.321 159.816C385.017 158.683 384.222 157.516 382.934 156.315L380.113 157.071L371.147 159.929L368.794 155.01L378.307 152.958C381.731 151.93 384.746 150.819 387.352 149.623L389.609 154.029C388.164 154.61 386.743 155.129 385.347 155.586C385.966 155.834 386.585 156.137 387.206 156.495C387.852 156.847 388.626 157.468 389.527 158.358C390.454 159.242 391.073 160.263 391.383 161.422C391.701 162.607 391.503 163.723 390.789 164.77C390.102 165.81 388.973 166.54 387.401 166.961L383.012 167.889L373.853 170.799L371.489 165.842L381.582 163.634ZM376.522 173.497C377.346 173.277 378.147 173.379 378.924 173.806C379.734 174.252 380.252 174.9 380.48 175.75C380.929 177.424 380.303 178.489 378.603 178.944C377.624 179.207 376.73 179.115 375.92 178.669C375.118 178.25 374.606 177.627 374.385 176.803C374.171 176.005 374.259 175.305 374.65 174.703C375.074 174.12 375.698 173.718 376.522 173.497ZM397.962 175.003L402.519 174.237L407.437 192.59L402.88 193.355L401.658 186.477L388.866 189.739L378.945 192.894L377.496 187.485L387.009 185.433L400.336 181.696L397.962 175.003Z" fill="white"/>
<path d="M383.262 120.141L383.097 119.155L381.922 119.352L382.32 120.475L383.262 120.141ZM387.819 119.376L388.785 119.117L388.55 118.239L387.654 118.389L387.819 119.376ZM392.737 137.728L392.903 138.714L393.988 138.532L393.703 137.469L392.737 137.728ZM388.18 138.494L387.195 138.669L387.368 139.644L388.345 139.48L388.18 138.494ZM386.958 131.616L387.943 131.441L387.754 130.381L386.711 130.647L386.958 131.616ZM374.166 134.877L373.919 133.908L373.891 133.916L373.863 133.924L374.166 134.877ZM364.245 138.033L363.279 138.292L363.55 139.303L364.548 138.986L364.245 138.033ZM362.796 132.624L362.585 131.646L361.558 131.868L361.83 132.882L362.796 132.624ZM372.309 130.572L372.519 131.549L372.549 131.543L372.579 131.534L372.309 130.572ZM385.636 126.835L385.906 127.798L386.936 127.509L386.578 126.501L385.636 126.835ZM383.428 121.127L387.985 120.362L387.654 118.389L383.097 119.155L383.428 121.127ZM386.853 119.634L391.771 137.987L393.703 137.469L388.785 119.117L386.853 119.634ZM392.571 136.742L388.014 137.508L388.345 139.48L392.903 138.714L392.571 136.742ZM389.164 138.319L387.943 131.441L385.973 131.79L387.195 138.669L389.164 138.319ZM386.711 130.647L373.919 133.908L374.413 135.846L387.205 132.585L386.711 130.647ZM373.863 133.924L363.942 137.08L364.548 138.986L374.469 135.83L373.863 133.924ZM365.211 137.774L363.761 132.365L361.83 132.882L363.279 138.292L365.211 137.774ZM363.006 133.601L372.519 131.549L372.098 129.594L362.585 131.646L363.006 133.601ZM372.579 131.534L385.906 127.798L385.366 125.872L372.039 129.609L372.579 131.534ZM386.578 126.501L384.205 119.807L382.32 120.475L384.693 127.169L386.578 126.501ZM371.382 145.659L371.864 144.783L371.863 144.782L371.382 145.659ZM368.378 150.522L368.86 149.646L368.851 149.641L368.842 149.636L368.378 150.522ZM367.108 146.555L366.299 145.967L366.284 145.988L366.27 146.01L367.108 146.555ZM369.239 146.316C369.804 146.164 370.34 146.227 370.9 146.535L371.863 144.782C370.87 144.237 369.805 144.093 368.721 144.384L369.239 146.316ZM370.9 146.535C371.484 146.856 371.819 147.288 371.972 147.861L373.904 147.343C373.602 146.216 372.899 145.352 371.864 144.783L370.9 146.535ZM371.972 147.861C372.155 148.545 372.073 148.928 371.943 149.15C371.811 149.375 371.507 149.642 370.802 149.831L371.32 151.763C372.315 151.496 373.174 151.003 373.667 150.163C374.163 149.32 374.169 148.333 373.904 147.343L371.972 147.861ZM370.802 149.831C370.046 150.033 369.421 149.954 368.86 149.646L367.896 151.398C368.954 151.98 370.118 152.085 371.32 151.763L370.802 149.831ZM368.842 149.636C368.27 149.336 367.952 148.933 367.809 148.397L365.877 148.914C366.175 150.027 366.881 150.867 367.915 151.408L368.842 149.636ZM367.809 148.397C367.656 147.826 367.734 147.427 367.947 147.1L366.27 146.01C365.7 146.887 365.602 147.888 365.877 148.914L367.809 148.397ZM367.917 147.143C368.182 146.778 368.593 146.489 369.239 146.316L368.721 144.384C367.718 144.653 366.881 145.166 366.299 145.967L367.917 147.143ZM381.582 163.634L381.795 164.611L381.818 164.606L381.841 164.6L381.582 163.634ZM385.012 162.218L385.688 162.955L385.688 162.955L385.012 162.218ZM382.934 156.315L383.615 155.584L383.21 155.206L382.675 155.349L382.934 156.315ZM380.113 157.071L379.854 156.105L379.832 156.111L379.809 156.118L380.113 157.071ZM371.147 159.929L370.245 160.36L370.621 161.146L371.451 160.881L371.147 159.929ZM368.794 155.01L368.583 154.033L367.346 154.3L367.892 155.442L368.794 155.01ZM378.307 152.958L378.518 153.936L378.557 153.927L378.595 153.916L378.307 152.958ZM387.352 149.623L388.242 149.167L387.806 148.315L386.935 148.714L387.352 149.623ZM389.609 154.029L389.982 154.957L390.999 154.549L390.499 153.573L389.609 154.029ZM385.347 155.586L385.036 154.635L382.424 155.49L384.974 156.514L385.347 155.586ZM387.206 156.495L386.706 157.361L386.717 157.368L386.728 157.374L387.206 156.495ZM389.527 158.358L388.824 159.069L388.831 159.076L388.837 159.082L389.527 158.358ZM390.789 164.77L389.963 164.207L389.955 164.218L390.789 164.77ZM387.401 166.961L387.608 167.94L387.634 167.934L387.66 167.927L387.401 166.961ZM383.012 167.889L382.805 166.911L382.756 166.921L382.709 166.936L383.012 167.889ZM373.853 170.799L372.95 171.229L373.325 172.016L374.156 171.752L373.853 170.799ZM371.489 165.842L371.276 164.865L370.044 165.134L370.587 166.272L371.489 165.842ZM381.841 164.6C382.753 164.356 383.528 164.106 384.154 163.847C384.763 163.596 385.304 163.308 385.688 162.955L384.336 161.482C384.21 161.597 383.926 161.778 383.391 161.999C382.873 162.212 382.188 162.437 381.323 162.668L381.841 164.6ZM385.688 162.955C386.627 162.093 386.617 160.788 386.287 159.558L384.355 160.075C384.633 161.111 384.416 161.408 384.336 161.482L385.688 162.955ZM386.287 159.558C385.916 158.174 384.977 156.853 383.615 155.584L382.252 157.046C383.467 158.179 384.119 159.192 384.355 160.075L386.287 159.558ZM382.675 155.349L379.854 156.105L380.372 158.037L383.192 157.281L382.675 155.349ZM379.809 156.118L370.844 158.976L371.451 160.881L380.417 158.024L379.809 156.118ZM372.049 159.497L369.696 154.579L367.892 155.442L370.245 160.36L372.049 159.497ZM369.005 155.988L378.518 153.936L378.096 151.981L368.583 154.033L369.005 155.988ZM378.595 153.916C382.052 152.878 385.112 151.751 387.769 150.532L386.935 148.714C384.38 149.886 381.41 150.983 378.02 152L378.595 153.916ZM386.462 150.079L388.719 154.485L390.499 153.573L388.242 149.167L386.462 150.079ZM389.237 153.101C387.81 153.674 386.41 154.185 385.036 154.635L385.658 156.536C387.076 156.072 388.517 155.546 389.982 154.957L389.237 153.101ZM384.974 156.514C385.546 156.743 386.123 157.025 386.706 157.361L387.706 155.629C387.047 155.249 386.385 154.925 385.719 154.657L384.974 156.514ZM386.728 157.374C387.253 157.66 387.949 158.205 388.824 159.069L390.23 157.647C389.303 156.731 388.451 156.034 387.683 155.617L386.728 157.374ZM388.837 159.082C389.64 159.848 390.157 160.711 390.417 161.681L392.349 161.163C391.988 159.815 391.268 158.636 390.217 157.634L388.837 159.082ZM390.417 161.681C390.657 162.574 390.519 163.391 389.963 164.207L391.616 165.333C392.487 164.054 392.745 162.64 392.349 161.163L390.417 161.681ZM389.955 164.218C389.439 164.999 388.551 165.618 387.142 165.996L387.66 167.927C389.394 167.463 390.765 166.621 391.624 165.321L389.955 164.218ZM387.194 165.983L382.805 166.911L383.219 168.868L387.608 167.94L387.194 165.983ZM382.709 166.936L373.55 169.846L374.156 171.752L383.315 168.842L382.709 166.936ZM374.755 170.368L372.392 165.411L370.587 166.272L372.95 171.229L374.755 170.368ZM371.703 166.819L381.795 164.611L381.368 162.657L371.276 164.865L371.703 166.819ZM378.924 173.806L379.406 172.93L379.405 172.93L378.924 173.806ZM375.92 178.669L376.403 177.793L376.393 177.788L376.384 177.783L375.92 178.669ZM374.65 174.703L373.841 174.115L373.826 174.136L373.812 174.158L374.65 174.703ZM376.781 174.463C377.346 174.312 377.882 174.375 378.443 174.683L379.405 172.93C378.412 172.384 377.347 172.241 376.263 172.531L376.781 174.463ZM378.442 174.682C379.026 175.004 379.361 175.436 379.514 176.009L381.446 175.491C381.144 174.363 380.441 173.5 379.406 172.93L378.442 174.682ZM379.514 176.009C379.697 176.693 379.615 177.076 379.485 177.298C379.353 177.522 379.049 177.79 378.344 177.979L378.862 179.91C379.857 179.644 380.716 179.151 381.209 178.311C381.705 177.467 381.711 176.481 381.446 175.491L379.514 176.009ZM378.344 177.979C377.588 178.181 376.963 178.102 376.403 177.793L375.438 179.545C376.497 180.128 377.66 180.232 378.862 179.91L378.344 177.979ZM376.384 177.783C375.812 177.484 375.495 177.08 375.351 176.544L373.419 177.062C373.717 178.175 374.423 179.015 375.457 179.555L376.384 177.783ZM375.351 176.544C375.198 175.974 375.277 175.575 375.489 175.248L373.812 174.158C373.242 175.035 373.144 176.036 373.419 177.062L375.351 176.544ZM375.459 175.291C375.724 174.926 376.135 174.636 376.781 174.463L376.263 172.531C375.26 172.8 374.424 173.314 373.841 174.115L375.459 175.291ZM397.962 175.003L397.797 174.016L396.622 174.214L397.02 175.337L397.962 175.003ZM402.519 174.237L403.485 173.978L403.25 173.1L402.354 173.251L402.519 174.237ZM407.437 192.59L407.603 193.576L408.688 193.394L408.403 192.331L407.437 192.59ZM402.88 193.355L401.895 193.53L402.069 194.506L403.046 194.341L402.88 193.355ZM401.658 186.477L402.643 186.302L402.454 185.242L401.411 185.508L401.658 186.477ZM388.866 189.739L388.619 188.77L388.591 188.777L388.563 188.786L388.866 189.739ZM378.945 192.894L377.979 193.153L378.25 194.165L379.248 193.847L378.945 192.894ZM377.496 187.485L377.285 186.508L376.258 186.729L376.53 187.744L377.496 187.485ZM387.009 185.433L387.22 186.411L387.249 186.404L387.279 186.396L387.009 185.433ZM400.336 181.696L400.606 182.659L401.636 182.371L401.278 181.362L400.336 181.696ZM398.128 175.989L402.685 175.223L402.354 173.251L397.797 174.016L398.128 175.989ZM401.554 174.496L406.471 192.849L408.403 192.331L403.485 173.978L401.554 174.496ZM407.271 191.604L402.714 192.369L403.046 194.341L407.603 193.576L407.271 191.604ZM403.864 193.18L402.643 186.302L400.673 186.652L401.895 193.53L403.864 193.18ZM401.411 185.508L388.619 188.77L389.114 190.708L401.905 187.446L401.411 185.508ZM388.563 188.786L378.642 191.941L379.248 193.847L389.17 190.692L388.563 188.786ZM379.911 192.636L378.462 187.226L376.53 187.744L377.979 193.153L379.911 192.636ZM377.707 188.463L387.22 186.411L386.798 184.456L377.285 186.508L377.707 188.463ZM387.279 186.396L400.606 182.659L400.066 180.734L386.739 184.47L387.279 186.396ZM401.278 181.362L398.905 174.668L397.02 175.337L399.393 182.031L401.278 181.362Z" fill="black"/>
<path d="M345.879 29.324C345.879 29.324 336.404 15.4898 327 12.3389C314.427 8.12586 294 20.3389 294 20.3389" stroke="black"/>
<path d="M288.857 18.3496L298.324 8.66912L295.515 19.8999L295.383 20.426L295.918 20.5146L312.683 23.2889L298.977 32.5862L298.517 32.8978L298.875 33.3222L304.925 40.5H294H293.691L293.553 40.7764L289.915 48.0528L284.4 40.7L284.15 40.3662L283.776 40.5528L272.997 45.9424L278.46 33.197L278.758 32.5H278H269.805L278.257 27.4287L278.806 27.0993L278.354 26.6464L268.148 16.4408L277.807 20.4825L278.5 20.7725V20.0213V8.24795L288.138 18.3452L288.496 18.7196L288.857 18.3496Z" fill="#FFC700" stroke="black"/>
</g>
<defs>
<clipPath id="clip0_0_60">
<rect width="813" height="530" fill="white"/>
</clipPath>
</defs>
</svg>
